<svg width="112" height="22" viewBox="0 0 112 22" fill="none" xmlns="http://www.w3.org/2000/svg">
<path d="M10 1L12.2451 7.90983H19.5106L13.6327 12.1803L15.8779 19.0902L10 14.8197L4.12215 19.0902L6.36729 12.1803L0.489435 7.90983H7.75486L10 1Z" fill="#FF9921"/>
<path d="M33 1L35.2451 7.90983H42.5106L36.6327 12.1803L38.8779 19.0902L33 14.8197L27.1221 19.0902L29.3673 12.1803L23.4894 7.90983H30.7549L33 1Z" fill="#FF9921"/>
<path d="M56 1L58.2451 7.90983H65.5106L59.6327 12.1803L61.8779 19.0902L56 14.8197L50.1221 19.0902L52.3673 12.1803L46.4894 7.90983H53.7549L56 1Z" fill="#FF9921"/>
<path d="M79 1L81.2451 7.90983H88.5106L82.6327 12.1803L84.8779 19.0902L79 14.8197L73.1221 19.0902L75.3673 12.1803L69.4894 7.90983H76.7549L79 1Z" fill="#FF9921"/>
<path d="M102 1L104.245 7.90983H111.511L105.633 12.1803L107.878 19.0902L102 14.8197L96.1221 19.0902L98.3673 12.1803L92.4894 7.90983H99.7549L102 1Z" fill="#FF9921"/>
</svg>
